<?xml version="1.0" standalone="no"?>
<!DOCTYPE svg PUBLIC "-//W3C//DTD SVG 20010904//EN"
 "http://www.w3.org/TR/2001/REC-SVG-20010904/DTD/svg10.dtd">
<svg version="1.0" xmlns="http://www.w3.org/2000/svg"
 width="512.000000pt" height="512.000000pt" viewBox="0 0 512.000000 512.000000"
 preserveAspectRatio="xMidYMid meet">
<metadata>
Created by potrace 1.14, written by Peter Selinger 2001-2017
</metadata>
<g transform="translate(0.000000,512.000000) scale(0.100000,-0.100000)"
fill="#000000" stroke="none">
<path d="M1265 5089 c-202 -31 -373 -203 -420 -424 -8 -39 -15 -80 -15 -92 0
-17 -6 -23 -22 -24 -13 0 -32 -3 -43 -5 -11 -3 -28 -5 -37 -5 -10 0 -18 -4
-18 -7 0 -7 -16 -11 -57 -14 -7 -1 -13 -5 -13 -10 0 -4 -9 -8 -20 -8 -11 0
-20 -5 -20 -11 0 -5 -4 -8 -8 -5 -5 3 -18 -3 -29 -13 -11 -10 -29 -22 -41 -25
-12 -4 -20 -12 -17 -17 4 -5 1 -9 -5 -9 -14 0 -109 -98 -121 -125 -5 -11 -17
-33 -28 -50 -22 -37 -54 -131 -56 -165 -1 -14 -3 -30 -6 -35 -3 -6 -5 -811 -4
-1790 2 -1306 5 -1787 13 -1808 7 -15 11 -31 10 -35 -3 -18 58 -144 84 -172
10 -10 18 -23 18 -27 0 -18 122 -116 185 -148 134 -68 7 -64 1965 -64 1701 -1
1778 0 1847 18 40 10 101 35 137 55 75 42 177 140 209 200 26 49 67 145 66
154 -1 4 0 9 1 12 1 3 4 14 7 25 3 11 6 655 7 1430 1 776 5 1416 9 1423 5 6 5
12 0 12 -4 0 -8 154 -8 343 1 387 -4 442 -47 535 -29 63 -74 129 -117 173 -40
39 -141 114 -141 104 0 -3 -10 1 -22 9 -12 9 -30 16 -40 16 -10 0 -18 5 -18
11 0 6 -9 9 -20 6 -11 -3 -20 -1 -20 4 0 5 -7 9 -16 9 -13 0 -15 8 -12 35 2
19 0 35 -4 35 -4 0 -8 15 -8 33 0 56 -46 165 -99 237 -38 52 -114 129 -128
130 -6 0 -19 7 -28 16 -24 24 -148 64 -202 66 -96 3 -235 -35 -256 -69 -4 -7
-14 -13 -22 -13 -23 0 -126 -108 -154 -163 -8 -15 -17 -27 -20 -27 -3 0 -18
20 -34 44 -64 102 -185 190 -297 216 -115 28 -240 4 -341 -63 -56 -37 -140
-117 -124 -117 5 0 -1 -7 -13 -16 -12 -8 -22 -21 -22 -28 0 -8 -6 -18 -13 -24
-10 -9 -23 3 -58 51 -25 35 -65 79 -90 99 -54 44 -166 101 -184 94 -8 -3 -15
0 -17 5 -5 14 -136 13 -189 -1 -57 -15 -208 -89 -184 -90 6 0 0 -6 -12 -13
-12 -7 -23 -16 -25 -21 -2 -4 -20 -26 -40 -48 -21 -23 -43 -54 -50 -69 l-13
-29 -20 34 c-30 50 -117 146 -132 146 -7 0 -13 3 -13 8 0 7 -74 56 -88 58 -4
0 -19 6 -33 12 -53 22 -141 31 -204 21z m109 -276 c37 -6 115 -73 116 -100 0
-7 5 -13 10 -13 6 0 10 -9 10 -20 0 -11 4 -20 8 -20 5 0 9 -6 9 -12 0 -7 3
-32 7 -55 l8 -42 -96 2 c-59 1 -96 -2 -96 -8 0 -7 -3 -7 -8 0 -4 6 -55 10
-117 10 -104 0 -110 1 -108 20 6 66 41 142 87 188 36 36 120 71 141 59 6 -4
18 -8 29 -9z m1727 -10 c4 1 21 -9 39 -23 38 -29 76 -85 86 -127 4 -15 12 -34
18 -42 9 -12 8 -13 -4 -6 -12 7 -13 6 -4 -6 5 -8 10 -21 10 -29 -1 -12 -20
-15 -108 -15 -65 0 -108 -4 -108 -10 0 -7 -3 -7 -8 0 -4 6 -50 10 -102 10
l-95 0 3 40 c6 73 77 185 132 208 14 5 39 12 55 14 17 3 32 6 34 8 2 2 13 -2
25 -10 11 -8 24 -13 27 -12z m825 10 c9 8 47 -14 87 -52 37 -34 74 -109 82
-168 5 -42 4 -45 -15 -40 -11 3 -20 1 -20 -5 0 -5 -5 -6 -11 -3 -15 10 -149
11 -149 2 0 -5 -5 -5 -11 -2 -17 11 -139 11 -139 0 0 -7 -3 -7 -8 0 -4 6 -20
10 -37 10 -31 0 -32 3 -22 66 7 42 62 132 95 157 20 15 39 29 42 32 3 3 21 7
40 9 19 1 37 5 39 7 3 2 8 -1 12 -8 4 -7 11 -9 15 -5z m-1671 -12 c68 -37 119
-118 132 -207 l6 -46 -46 3 c-26 2 -47 0 -47 -4 0 -5 -5 -5 -11 -2 -15 10
-149 11 -149 2 0 -5 -5 -5 -11 -1 -7 4 -46 6 -87 5 l-74 -2 5 43 c5 40 30 108
50 133 52 68 93 92 155 92 26 0 60 -7 77 -16z"/>
</g>
</svg>
